<?xml version="1.0" standalone="no"?>
<!DOCTYPE svg PUBLIC "-//W3C//DTD SVG 20010904//EN"
 "http://www.w3.org/TR/2001/REC-SVG-20010904/DTD/svg10.dtd">
<svg version="1.0" xmlns="http://www.w3.org/2000/svg"
 width="1002.000000pt" height="1002.000000pt" viewBox="0 0 1002.000000 1002.000000"
 preserveAspectRatio="xMidYMid meet">
<metadata>
Created by potrace 1.14, written by Peter Selinger 2001-2017
</metadata>
<g transform="translate(0.000000,1002.000000) scale(0.100000,-0.100000)"
fill="#000000" stroke="none">
<path d="M4778 10015 c-1 -1 -43 -5 -93 -9 -49 -3 -101 -8 -115 -10 -14 -3
-52 -7 -85 -11 -33 -4 -82 -11 -110 -16 -27 -5 -66 -12 -85 -15 -19 -3 -75
-14 -125 -25 -49 -11 -99 -22 -110 -24 -51 -11 -270 -76 -360 -108 -745 -260
-1388 -728 -1878 -1369 -66 -85 -216 -310 -253 -378 -10 -19 -24 -42 -30 -50
-26 -33 -180 -354 -231 -480 -108 -267 -203 -602 -237 -835 -2 -16 -9 -61 -15
-100 -29 -192 -36 -307 -36 -560 0 -320 15 -479 81 -830 28 -155 168 -612 195
-639 5 -6 9 -16 9 -24 0 -7 10 -34 21 -60 12 -26 30 -67 41 -92 29 -64 114
-234 156 -310 74 -132 253 -408 294 -452 7 -7 33 -40 58 -73 25 -33 50 -65 55
-71 6 -6 32 -38 60 -70 27 -32 115 -125 195 -205 250 -251 448 -407 785 -616
64 -40 289 -156 400 -206 327 -149 713 -262 1060 -312 22 -3 54 -8 70 -10 203
-34 735 -40 950 -10 31 4 90 12 160 21 22 3 63 9 90 15 28 5 66 12 85 15 79
12 294 67 430 110 541 171 1016 440 1450 820 293 257 570 591 780 938 209 348
403 832 474 1186 3 14 7 36 11 50 10 48 54 316 59 365 28 253 28 756 1 905 -1
8 -6 42 -10 75 -5 33 -9 67 -10 75 -3 18 -36 201 -39 215 -1 6 -8 37 -15 70
-19 89 -75 285 -119 415 -253 744 -743 1419 -1377 1895 -456 342 -981 586
-1522 706 -24 5 -62 13 -85 19 -43 10 -126 24 -203 35 -22 4 -51 8 -65 10 -14
3 -54 7 -90 11 -36 3 -76 8 -90 10 -27 6 -576 14 -582 9z"/>
<path d="M3085 2009 c-131 -19 -241 -66 -308 -134 -36 -37 -82 -135 -98 -210
-18 -90 -16 -306 5 -385 39 -153 98 -227 259 -332 134 -88 157 -99 357 -173
85 -32 161 -64 168 -70 18 -16 21 -108 5 -145 -7 -18 -22 -32 -40 -37 -15 -4
-184 -7 -375 -6 l-348 2 -2 -22 c-1 -12 -3 -31 -4 -42 -1 -11 -2 -35 -3 -54
-1 -19 -4 -32 -7 -29 -3 4 -34 109 -69 235 -35 125 -95 343 -135 483 -39 140
-73 262 -75 270 -1 8 -14 56 -28 105 -14 50 -42 148 -61 219 -40 144 -62 180
-129 217 -24 13 -63 38 -87 54 l-44 30 -215 0 c-208 0 -217 -1 -253 -23 -47
-29 -71 -69 -97 -162 -12 -41 -33 -113 -46 -160 -14 -47 -27 -94 -29 -105 -3
-11 -23 -85 -46 -165 -23 -80 -43 -152 -45 -160 -2 -8 -24 -89 -50 -180 -54
-189 -109 -386 -135 -480 -10 -36 -41 -148 -69 -249 -28 -101 -51 -188 -51
-192 0 -4 19 -8 43 -7 88 1 88 1 77 -28 -6 -14 -10 -30 -10 -35 0 -6 90 -8
232 -7 l231 3 59 229 c32 126 60 231 62 233 2 2 88 4 192 3 132 0 190 -4 195
-12 4 -6 18 -55 30 -107 12 -53 24 -100 25 -106 2 -5 5 -19 8 -30 3 -11 9 -35
15 -53 5 -18 10 -36 11 -40 6 -43 14 -53 39 -52 62 4 69 1 75 -35 l7 -35 231
0 231 0 -7 28 c-3 15 -8 37 -12 50 -5 17 -3 21 9 16 9 -3 17 -15 19 -27 3 -21
44 -35 148 -52 19 -4 42 -8 50 -10 8 -2 38 -7 65 -11 28 -3 59 -8 70 -11 11
-2 115 -6 230 -8 209 -5 300 4 395 35 216 72 303 230 295 540 -4 144 -8 171
-41 259 -41 110 -90 163 -229 253 -141 90 -151 95 -492 215 -24 8 -46 19 -49
25 -3 5 -6 39 -6 75 0 53 4 69 21 87 21 21 27 21 371 20 l350 -1 1 31 c0 17 2
39 4 49 4 22 18 189 19 237 1 33 -1 35 -49 48 -49 14 -68 28 -59 44 3 4 -6 12
-21 18 -42 16 -183 50 -228 55 -23 3 -55 8 -72 10 -55 10 -419 12 -480 4z
m-1135 -869 c17 -69 33 -135 36 -147 4 -21 2 -22 -68 -20 -41 1 -73 6 -73 12
0 15 69 285 72 282 1 -2 16 -59 33 -127z"/>
<path d="M6537 2004 c-2 -1 -201 -14 -276 -17 l-35 -2 1 -940 c0 -803 2 -940
14 -941 8 -1 33 -2 56 -3 42 -1 42 -1 39 -36 l-4 -35 67 -1 c36 -1 80 -3 96
-5 17 -3 185 -6 375 -9 371 -4 434 2 554 47 100 39 201 159 220 261 3 15 8 36
11 48 13 39 12 230 -1 307 -14 88 -34 149 -68 207 -24 40 -88 105 -104 105 -4
0 -13 5 -19 11 -8 8 2 22 33 51 56 52 90 125 107 230 20 128 14 260 -19 368
-28 94 -69 144 -174 215 -184 123 -245 137 -608 139 -145 1 -264 1 -265 0z
m520 -468 c5 -4 7 -52 6 -106 -2 -149 -27 -172 -192 -174 l-86 -1 -2 145 -1
146 134 -1 c73 -1 137 -5 141 -9z m19 -721 c22 -15 24 -29 25 -135 0 -100 -4
-126 -29 -159 -25 -34 -81 -47 -192 -47 l-95 1 -1 178 -1 178 138 -2 c94 0
143 -5 155 -14z"/>
<path d="M4249 1979 c-71 -18 -115 -81 -123 -174 -3 -33 -8 -132 -11 -220 -8
-244 -14 -407 -20 -545 -3 -69 -7 -192 -10 -275 -3 -82 -8 -206 -10 -275 -3
-69 -7 -184 -10 -256 l-4 -131 32 -1 c89 -1 85 1 80 -37 l-5 -35 216 0 216 0
1 53 c0 28 2 92 4 142 2 50 7 194 11 320 8 250 10 328 14 390 2 39 2 40 10 10
4 -16 23 -93 40 -170 82 -354 90 -374 167 -410 21 -10 51 -29 67 -42 49 -41
74 -46 226 -49 165 -3 207 5 253 46 41 36 49 61 118 362 30 131 57 238 60 238
3 0 6 -12 6 -27 3 -91 14 -399 19 -518 3 -77 7 -169 8 -205 2 -72 -6 -66 88
-69 21 -1 26 -5 23 -21 -10 -49 -7 -50 217 -50 l210 0 -7 158 c-3 86 -8 204
-10 262 -4 124 -14 372 -21 560 -2 74 -7 191 -9 260 -18 516 -19 525 -52 577
-16 25 -76 63 -99 63 -8 0 -17 7 -20 15 -3 8 -22 25 -42 37 -36 22 -46 23
-262 23 -335 -1 -315 20 -417 -424 -41 -174 -81 -351 -90 -393 -17 -82 -28
-91 -39 -30 -3 20 -13 64 -21 97 -8 33 -16 67 -18 75 -27 139 -111 475 -126
507 -19 39 -73 85 -107 90 -8 1 -20 10 -28 21 -7 11 -30 28 -51 38 -33 16 -66
18 -244 19 -113 1 -217 -2 -230 -6z"/>
<path d="M7717 1976 c-2 -6 -3 -357 -2 -781 2 -750 3 -772 23 -834 34 -105 74
-154 187 -229 153 -101 173 -106 405 -106 206 0 482 10 565 21 28 3 58 6 68 7
15 0 20 7 19 26 -1 12 -15 308 -16 332 -2 37 -10 42 -63 43 -41 0 -46 3 -50
25 -2 14 -5 30 -7 35 -2 6 -106 10 -285 10 l-281 -1 -1 26 c0 14 -1 325 -1
693 0 609 -2 667 -17 668 -9 1 -33 2 -53 2 -21 1 -39 6 -39 11 -1 6 -2 22 -3
36 l-1 25 -222 1 c-149 0 -223 -3 -226 -10z"/>
</g>
</svg>
